<svg width="1440" height="4310" viewBox="0 0 1440 4310" fill="none" xmlns="http://www.w3.org/2000/svg">
<g clip-path="url(#clip0_433_654)">
<rect width="1440" height="4310" fill="url(#paint0_radial_433_654)"/>
<path d="M10.0001 4024.39H206.698M10.0001 4131.68H525.586" stroke="#3CE5FC"/>
<circle cx="212.658" cy="4024.39" r="8.9408" transform="rotate(90 212.658 4024.39)" fill="#37C9E9"/>
<g filter="url(#filter0_f_433_654)">
<circle cx="212.658" cy="4024.39" r="16.3915" transform="rotate(90 212.658 4024.39)" fill="#3CE5FC" fill-opacity="0.6"/>
</g>
<circle cx="527.076" cy="4131.68" r="8.9408" transform="rotate(90 527.076 4131.68)" fill="#37C9E9"/>
<g filter="url(#filter1_f_433_654)">
<circle cx="527.076" cy="4131.68" r="16.3915" transform="rotate(90 527.076 4131.68)" fill="#3CE5FC" fill-opacity="0.6"/>
</g>
<path d="M783.447 3793.22H1360.92L1436.1 3721.41" stroke="#3CE5FC"/>
<path d="M1438.5 3424.98H1196.95L1108.97 3509.02M1009.8 3603.75L1005 3608.34H405.132" stroke="#3CE5FC"/>
<path d="M1435.3 3745.09L1240.94 3559.44H1132.97M991.4 3559.44H596.289" stroke="#3CE5FC"/>
<path d="M1436.1 3663.34H1223.35L1131.37 3575.48M1042.59 3492.21L1018.59 3469.29H311.553" stroke="#3CE5FC"/>
<path d="M1436.1 3208H1266.54L1093.78 3373.02H524.305" stroke="#3CE5FC"/>
<path d="M1436.1 3314.2H1309.73L1216.95 3225.57H740.257L646.678 3314.96H435.525M305.154 3314.96H126.794" stroke="#3CE5FC"/>
<ellipse cx="781.848" cy="3793.22" rx="9.168" ry="9.59785" transform="rotate(-90 781.848 3793.22)" fill="#37C9E9"/>
<g filter="url(#filter2_f_433_654)">
<ellipse cx="781.848" cy="3793.22" rx="16.808" ry="17.5961" transform="rotate(-90 781.848 3793.22)" fill="#3CE5FC" fill-opacity="0.6"/>
</g>
<ellipse cx="589.891" cy="3559.44" rx="9.168" ry="9.59785" transform="rotate(-90 589.891 3559.44)" fill="#37C9E9"/>
<g filter="url(#filter3_f_433_654)">
<ellipse cx="589.891" cy="3559.44" rx="16.808" ry="17.5961" transform="rotate(-90 589.891 3559.44)" fill="#3CE5FC" fill-opacity="0.6"/>
</g>
<ellipse cx="305.154" cy="3469.29" rx="9.168" ry="9.59785" transform="rotate(-90 305.154 3469.29)" fill="#37C9E9"/>
<g filter="url(#filter4_f_433_654)">
<ellipse cx="305.154" cy="3469.29" rx="16.808" ry="17.5961" transform="rotate(-90 305.154 3469.29)" fill="#3CE5FC" fill-opacity="0.6"/>
</g>
<ellipse cx="522.706" cy="3373.02" rx="9.168" ry="9.59785" transform="rotate(-90 522.706 3373.02)" fill="#37C9E9"/>
<g filter="url(#filter5_f_433_654)">
<ellipse cx="522.705" cy="3373.02" rx="16.808" ry="17.5961" transform="rotate(-90 522.705 3373.02)" fill="#3CE5FC" fill-opacity="0.6"/>
</g>
<ellipse cx="119.596" cy="3314.96" rx="9.168" ry="9.59785" transform="rotate(-90 119.596 3314.96)" fill="#37C9E9"/>
<g filter="url(#filter6_f_433_654)">
<ellipse cx="119.596" cy="3314.96" rx="16.808" ry="17.5961" transform="rotate(-90 119.596 3314.96)" fill="#3CE5FC" fill-opacity="0.6"/>
</g>
<ellipse cx="397.934" cy="3608.34" rx="9.168" ry="9.59785" transform="rotate(-90 397.934 3608.34)" fill="#37C9E9"/>
<g filter="url(#filter7_f_433_654)">
<ellipse cx="397.934" cy="3608.34" rx="32.088" ry="33.5925" transform="rotate(-90 397.934 3608.34)" fill="#3CE5FC" fill-opacity="0.7"/>
</g>
<path d="M417.629 3608.34C417.629 3597.91 408.789 3589.5 397.933 3589.5C387.078 3589.5 378.238 3597.91 378.238 3608.34C378.238 3618.76 387.078 3627.17 397.933 3627.17C408.789 3627.17 417.629 3618.76 417.629 3608.34Z" stroke="#3CE5FC"/>
<g filter="url(#filter8_f_433_654)">
<path d="M417.629 3608.34C417.629 3597.91 408.789 3589.5 397.933 3589.5C387.078 3589.5 378.238 3597.91 378.238 3608.34C378.238 3618.76 387.078 3627.17 397.933 3627.17C408.789 3627.17 417.629 3618.76 417.629 3608.34Z" stroke="#3CE5FC"/>
</g>
<ellipse cx="1062.58" cy="3558.68" rx="66.468" ry="69.5844" transform="rotate(-90 1062.58 3558.68)" stroke="#3CE5FC" stroke-width="3"/>
<g filter="url(#filter9_f_433_654)">
<ellipse cx="1062.58" cy="3558.68" rx="66.468" ry="69.5844" transform="rotate(-90 1062.58 3558.68)" stroke="#3CE5FC" stroke-width="3"/>
</g>
<ellipse cx="369.94" cy="3315.72" rx="60.356" ry="63.1858" transform="rotate(-90 369.94 3315.72)" stroke="#3CE5FC" stroke-width="3"/>
<g filter="url(#filter10_f_433_654)">
<ellipse cx="369.94" cy="3315.72" rx="60.356" ry="63.1858" transform="rotate(-90 369.94 3315.72)" stroke="#3CE5FC" stroke-width="3"/>
</g>
<path d="M6.48499e-05 2323.39H196.698M6.48499e-05 2430.68H515.586" stroke="#3CE5FC"/>
<path d="M0.000157356 2734.67L124.426 2611.73H415.002L549.114 2745.84H616.915M736.871 2745.84H959.646L1048.31 2657.18H1371.67" stroke="#3CE5FC"/>
<path d="M0.000118256 3080.38H146.033L233.951 2992.46H771.889" stroke="#3CE5FC"/>
<path d="M-2.69413e-05 3187.67H366.573L453.001 3101.24H908.981L970.077 3162.34H1338.14" stroke="#3CE5FC"/>
<circle cx="202.658" cy="2323.39" r="8.9408" transform="rotate(90 202.658 2323.39)" fill="#37C9E9"/>
<g filter="url(#filter11_f_433_654)">
<circle cx="202.658" cy="2323.39" r="16.3915" transform="rotate(90 202.658 2323.39)" fill="#3CE5FC" fill-opacity="0.6"/>
</g>
<circle cx="517.076" cy="2430.68" r="8.9408" transform="rotate(90 517.076 2430.68)" fill="#37C9E9"/>
<g filter="url(#filter12_f_433_654)">
<circle cx="517.076" cy="2430.68" r="16.3915" transform="rotate(90 517.076 2430.68)" fill="#3CE5FC" fill-opacity="0.6"/>
</g>
<circle cx="1378.37" cy="2657.18" r="8.9408" transform="rotate(90 1378.37 2657.18)" fill="#37C9E9"/>
<g filter="url(#filter13_f_433_654)">
<circle cx="1378.37" cy="2657.18" r="16.3915" transform="rotate(90 1378.37 2657.18)" fill="#3CE5FC" fill-opacity="0.6"/>
</g>
<circle cx="1339.63" cy="3162.34" r="8.9408" transform="rotate(90 1339.63 3162.34)" fill="#37C9E9"/>
<g filter="url(#filter14_f_433_654)">
<circle cx="1339.63" cy="3162.34" r="16.3915" transform="rotate(90 1339.63 3162.34)" fill="#3CE5FC" fill-opacity="0.6"/>
</g>
<circle cx="777.85" cy="2992.46" r="8.9408" transform="rotate(90 777.85 2992.46)" fill="#37C9E9"/>
<g filter="url(#filter15_f_433_654)">
<circle cx="777.85" cy="2992.46" r="31.2928" transform="rotate(90 777.85 2992.46)" fill="#3CE5FC" fill-opacity="0.7"/>
</g>
<circle cx="777.85" cy="2992.46" r="18.3816" transform="rotate(90 777.85 2992.46)" stroke="#3CE5FC"/>
<g filter="url(#filter16_f_433_654)">
<circle cx="777.85" cy="2992.46" r="18.3816" transform="rotate(90 777.85 2992.46)" stroke="#3CE5FC"/>
</g>
<circle cx="677.266" cy="2745.84" r="58.8603" transform="rotate(90 677.266 2745.84)" stroke="#3CE5FC" stroke-width="3"/>
<g filter="url(#filter17_f_433_654)">
<circle cx="677.266" cy="2745.84" r="58.8603" transform="rotate(90 677.266 2745.84)" stroke="#3CE5FC" stroke-width="3"/>
</g>
<path d="M785.447 2181.22H1362.92L1438.1 2109.41" stroke="#3CE5FC"/>
<path d="M1440.5 1812.98H1198.95L1110.97 1897.02M1011.8 1991.75L1007 1996.34H407.132" stroke="#3CE5FC"/>
<path d="M1437.3 2133.09L1242.94 1947.44H1134.97M993.4 1947.44H598.289" stroke="#3CE5FC"/>
<path d="M1438.1 2051.34H1225.35L1133.37 1963.48M1044.59 1880.21L1020.59 1857.29H313.553" stroke="#3CE5FC"/>
<path d="M1438.1 1596H1268.54L1095.78 1761.02H526.305" stroke="#3CE5FC"/>
<path d="M1438.1 1702.2H1311.73L1218.95 1613.57H742.257L648.678 1702.96H437.525M307.154 1702.96H128.794" stroke="#3CE5FC"/>
<ellipse cx="783.848" cy="2181.22" rx="9.168" ry="9.59785" transform="rotate(-90 783.848 2181.22)" fill="#37C9E9"/>
<g filter="url(#filter18_f_433_654)">
<ellipse cx="783.848" cy="2181.22" rx="16.808" ry="17.5961" transform="rotate(-90 783.848 2181.22)" fill="#3CE5FC" fill-opacity="0.6"/>
</g>
<ellipse cx="591.891" cy="1947.44" rx="9.168" ry="9.59785" transform="rotate(-90 591.891 1947.44)" fill="#37C9E9"/>
<g filter="url(#filter19_f_433_654)">
<ellipse cx="591.891" cy="1947.44" rx="16.808" ry="17.5961" transform="rotate(-90 591.891 1947.44)" fill="#3CE5FC" fill-opacity="0.6"/>
</g>
<ellipse cx="307.154" cy="1857.29" rx="9.168" ry="9.59785" transform="rotate(-90 307.154 1857.29)" fill="#37C9E9"/>
<g filter="url(#filter20_f_433_654)">
<ellipse cx="307.154" cy="1857.29" rx="16.808" ry="17.5961" transform="rotate(-90 307.154 1857.29)" fill="#3CE5FC" fill-opacity="0.6"/>
</g>
<ellipse cx="524.706" cy="1761.02" rx="9.168" ry="9.59785" transform="rotate(-90 524.706 1761.02)" fill="#37C9E9"/>
<g filter="url(#filter21_f_433_654)">
<ellipse cx="524.705" cy="1761.02" rx="16.808" ry="17.5961" transform="rotate(-90 524.705 1761.02)" fill="#3CE5FC" fill-opacity="0.6"/>
</g>
<ellipse cx="121.596" cy="1702.96" rx="9.168" ry="9.59785" transform="rotate(-90 121.596 1702.96)" fill="#37C9E9"/>
<g filter="url(#filter22_f_433_654)">
<ellipse cx="121.596" cy="1702.96" rx="16.808" ry="17.5961" transform="rotate(-90 121.596 1702.96)" fill="#3CE5FC" fill-opacity="0.6"/>
</g>
<ellipse cx="399.934" cy="1996.34" rx="9.168" ry="9.59785" transform="rotate(-90 399.934 1996.34)" fill="#37C9E9"/>
<g filter="url(#filter23_f_433_654)">
<ellipse cx="399.934" cy="1996.34" rx="32.088" ry="33.5925" transform="rotate(-90 399.934 1996.34)" fill="#3CE5FC" fill-opacity="0.7"/>
</g>
<path d="M419.629 1996.34C419.629 1985.91 410.789 1977.5 399.933 1977.5C389.078 1977.5 380.238 1985.91 380.238 1996.34C380.238 2006.76 389.078 2015.17 399.933 2015.17C410.789 2015.17 419.629 2006.76 419.629 1996.34Z" stroke="#3CE5FC"/>
<g filter="url(#filter24_f_433_654)">
<path d="M419.629 1996.34C419.629 1985.91 410.789 1977.5 399.933 1977.5C389.078 1977.5 380.238 1985.91 380.238 1996.34C380.238 2006.76 389.078 2015.17 399.933 2015.17C410.789 2015.17 419.629 2006.76 419.629 1996.34Z" stroke="#3CE5FC"/>
</g>
<ellipse cx="1064.58" cy="1946.68" rx="66.468" ry="69.5844" transform="rotate(-90 1064.58 1946.68)" stroke="#3CE5FC" stroke-width="3"/>
<g filter="url(#filter25_f_433_654)">
<ellipse cx="1064.58" cy="1946.68" rx="66.468" ry="69.5844" transform="rotate(-90 1064.58 1946.68)" stroke="#3CE5FC" stroke-width="3"/>
</g>
<ellipse cx="371.94" cy="1703.72" rx="60.356" ry="63.1858" transform="rotate(-90 371.94 1703.72)" stroke="#3CE5FC" stroke-width="3"/>
<g filter="url(#filter26_f_433_654)">
<ellipse cx="371.94" cy="1703.72" rx="60.356" ry="63.1858" transform="rotate(-90 371.94 1703.72)" stroke="#3CE5FC" stroke-width="3"/>
</g>
<path d="M6.48499e-05 727.391H196.698M6.48499e-05 834.681H515.586" stroke="#3CE5FC"/>
<path d="M0.000157356 1138.67L124.426 1015.73H415.002L549.114 1149.84H616.915M736.871 1149.84H959.646L1048.31 1061.18H1371.67" stroke="#3CE5FC"/>
<path d="M0.000118256 1484.38H146.033L233.951 1396.46H771.889" stroke="#3CE5FC"/>
<path d="M-2.69413e-05 1591.67L366.573 1591.67L453.001 1505.24H908.981L970.077 1566.34H1338.14" stroke="#3CE5FC"/>
<circle cx="202.658" cy="727.391" r="8.9408" transform="rotate(90 202.658 727.391)" fill="#37C9E9"/>
<g filter="url(#filter27_f_433_654)">
<circle cx="202.658" cy="727.391" r="16.3915" transform="rotate(90 202.658 727.391)" fill="#3CE5FC" fill-opacity="0.6"/>
</g>
<circle cx="517.076" cy="834.681" r="8.9408" transform="rotate(90 517.076 834.681)" fill="#37C9E9"/>
<g filter="url(#filter28_f_433_654)">
<circle cx="517.076" cy="834.681" r="16.3915" transform="rotate(90 517.076 834.681)" fill="#3CE5FC" fill-opacity="0.6"/>
</g>
<circle cx="1378.37" cy="1061.18" r="8.9408" transform="rotate(90 1378.37 1061.18)" fill="#37C9E9"/>
<g filter="url(#filter29_f_433_654)">
<circle cx="1378.37" cy="1061.18" r="16.3915" transform="rotate(90 1378.37 1061.18)" fill="#3CE5FC" fill-opacity="0.6"/>
</g>
<circle cx="1339.63" cy="1566.34" r="8.9408" transform="rotate(90 1339.63 1566.34)" fill="#37C9E9"/>
<g filter="url(#filter30_f_433_654)">
<circle cx="1339.63" cy="1566.34" r="16.3915" transform="rotate(90 1339.63 1566.34)" fill="#3CE5FC" fill-opacity="0.6"/>
</g>
<circle cx="777.85" cy="1396.46" r="8.9408" transform="rotate(90 777.85 1396.46)" fill="#37C9E9"/>
<g filter="url(#filter31_f_433_654)">
<circle cx="777.85" cy="1396.46" r="31.2928" transform="rotate(90 777.85 1396.46)" fill="#3CE5FC" fill-opacity="0.7"/>
</g>
<circle cx="777.85" cy="1396.46" r="18.3816" transform="rotate(90 777.85 1396.46)" stroke="#3CE5FC"/>
<g filter="url(#filter32_f_433_654)">
<circle cx="777.85" cy="1396.46" r="18.3816" transform="rotate(90 777.85 1396.46)" stroke="#3CE5FC"/>
</g>
<circle cx="677.266" cy="1149.84" r="58.8603" transform="rotate(90 677.266 1149.84)" stroke="#3CE5FC" stroke-width="3"/>
<g filter="url(#filter33_f_433_654)">
<circle cx="677.266" cy="1149.84" r="58.8603" transform="rotate(90 677.266 1149.84)" stroke="#3CE5FC" stroke-width="3"/>
</g>
<path d="M785.447 585.224L1362.92 585.224L1438.1 513.408" stroke="#3CE5FC"/>
<path d="M1440.5 216.976L1198.95 216.976L1110.97 301.016M1011.8 395.752L1007 400.336L407.132 400.336" stroke="#3CE5FC"/>
<path d="M1437.3 537.091L1242.94 351.439H1134.97M993.4 351.439H598.289" stroke="#3CE5FC"/>
<path d="M1438.1 455.344H1225.35L1133.37 367.484M1044.59 284.208L1020.59 261.288L313.553 261.288" stroke="#3CE5FC"/>
<path d="M1438.1 -1.28746e-05H1268.54L1095.78 165.024L526.305 165.024" stroke="#3CE5FC"/>
<path d="M1438.1 106.196L1311.73 106.196L1218.95 17.5715L742.257 17.5715L648.678 106.96L437.525 106.96M307.154 106.96L128.794 106.96" stroke="#3CE5FC"/>
<ellipse cx="783.848" cy="585.224" rx="9.168" ry="9.59785" transform="rotate(-90 783.848 585.224)" fill="#37C9E9"/>
<g filter="url(#filter34_f_433_654)">
<ellipse cx="783.848" cy="585.224" rx="16.808" ry="17.5961" transform="rotate(-90 783.848 585.224)" fill="#3CE5FC" fill-opacity="0.6"/>
</g>
<ellipse cx="591.891" cy="351.44" rx="9.168" ry="9.59785" transform="rotate(-90 591.891 351.44)" fill="#37C9E9"/>
<g filter="url(#filter35_f_433_654)">
<ellipse cx="591.891" cy="351.44" rx="16.808" ry="17.5961" transform="rotate(-90 591.891 351.44)" fill="#3CE5FC" fill-opacity="0.6"/>
</g>
<ellipse cx="307.154" cy="261.288" rx="9.168" ry="9.59785" transform="rotate(-90 307.154 261.288)" fill="#37C9E9"/>
<g filter="url(#filter36_f_433_654)">
<ellipse cx="307.154" cy="261.288" rx="16.808" ry="17.5961" transform="rotate(-90 307.154 261.288)" fill="#3CE5FC" fill-opacity="0.6"/>
</g>
<ellipse cx="524.706" cy="165.024" rx="9.168" ry="9.59785" transform="rotate(-90 524.706 165.024)" fill="#37C9E9"/>
<g filter="url(#filter37_f_433_654)">
<ellipse cx="524.705" cy="165.024" rx="16.808" ry="17.5961" transform="rotate(-90 524.705 165.024)" fill="#3CE5FC" fill-opacity="0.6"/>
</g>
<ellipse cx="121.596" cy="106.96" rx="9.168" ry="9.59785" transform="rotate(-90 121.596 106.96)" fill="#37C9E9"/>
<g filter="url(#filter38_f_433_654)">
<ellipse cx="121.596" cy="106.96" rx="16.808" ry="17.5961" transform="rotate(-90 121.596 106.96)" fill="#3CE5FC" fill-opacity="0.6"/>
</g>
<ellipse cx="399.934" cy="400.336" rx="9.168" ry="9.59785" transform="rotate(-90 399.934 400.336)" fill="#37C9E9"/>
<g filter="url(#filter39_f_433_654)">
<ellipse cx="399.934" cy="400.336" rx="32.088" ry="33.5925" transform="rotate(-90 399.934 400.336)" fill="#3CE5FC" fill-opacity="0.7"/>
</g>
<path d="M419.629 400.336C419.629 389.912 410.789 381.5 399.933 381.5C389.078 381.5 380.238 389.912 380.238 400.336C380.238 410.76 389.078 419.172 399.933 419.172C410.789 419.172 419.629 410.76 419.629 400.336Z" stroke="#3CE5FC"/>
<g filter="url(#filter40_f_433_654)">
<path d="M419.629 400.336C419.629 389.912 410.789 381.5 399.933 381.5C389.078 381.5 380.238 389.912 380.238 400.336C380.238 410.76 389.078 419.172 399.933 419.172C410.789 419.172 419.629 410.76 419.629 400.336Z" stroke="#3CE5FC"/>
</g>
<ellipse cx="1064.58" cy="350.676" rx="66.468" ry="69.5844" transform="rotate(-90 1064.58 350.676)" stroke="#3CE5FC" stroke-width="3"/>
<g filter="url(#filter41_f_433_654)">
<ellipse cx="1064.58" cy="350.676" rx="66.468" ry="69.5844" transform="rotate(-90 1064.58 350.676)" stroke="#3CE5FC" stroke-width="3"/>
</g>
<ellipse cx="371.94" cy="107.724" rx="60.356" ry="63.1858" transform="rotate(-90 371.94 107.724)" stroke="#3CE5FC" stroke-width="3"/>
<g filter="url(#filter42_f_433_654)">
<ellipse cx="371.94" cy="107.724" rx="60.356" ry="63.1858" transform="rotate(-90 371.94 107.724)" stroke="#3CE5FC" stroke-width="3"/>
</g>
</g>
<defs>
<filter id="filter0_f_433_654" x="176.267" y="3988" width="72.783" height="72.783" filterUnits="userSpaceOnUse" color-interpolation-filters="sRGB">
<feFlood flood-opacity="0" result="BackgroundImageFix"/>
<feBlend mode="normal" in="SourceGraphic" in2="BackgroundImageFix" result="shape"/>
<feGaussianBlur stdDeviation="10" result="effect1_foregroundBlur_433_654"/>
</filter>
<filter id="filter1_f_433_654" x="490.685" y="4095.29" width="72.783" height="72.783" filterUnits="userSpaceOnUse" color-interpolation-filters="sRGB">
<feFlood flood-opacity="0" result="BackgroundImageFix"/>
<feBlend mode="normal" in="SourceGraphic" in2="BackgroundImageFix" result="shape"/>
<feGaussianBlur stdDeviation="10" result="effect1_foregroundBlur_433_654"/>
</filter>
<filter id="filter2_f_433_654" x="744.251" y="3756.42" width="75.1921" height="73.616" filterUnits="userSpaceOnUse" color-interpolation-filters="sRGB">
<feFlood flood-opacity="0" result="BackgroundImageFix"/>
<feBlend mode="normal" in="SourceGraphic" in2="BackgroundImageFix" result="shape"/>
<feGaussianBlur stdDeviation="10" result="effect1_foregroundBlur_433_654"/>
</filter>
<filter id="filter3_f_433_654" x="552.294" y="3522.63" width="75.1921" height="73.616" filterUnits="userSpaceOnUse" color-interpolation-filters="sRGB">
<feFlood flood-opacity="0" result="BackgroundImageFix"/>
<feBlend mode="normal" in="SourceGraphic" in2="BackgroundImageFix" result="shape"/>
<feGaussianBlur stdDeviation="10" result="effect1_foregroundBlur_433_654"/>
</filter>
<filter id="filter4_f_433_654" x="267.558" y="3432.48" width="75.1921" height="73.616" filterUnits="userSpaceOnUse" color-interpolation-filters="sRGB">
<feFlood flood-opacity="0" result="BackgroundImageFix"/>
<feBlend mode="normal" in="SourceGraphic" in2="BackgroundImageFix" result="shape"/>
<feGaussianBlur stdDeviation="10" result="effect1_foregroundBlur_433_654"/>
</filter>
<filter id="filter5_f_433_654" x="485.109" y="3336.22" width="75.1921" height="73.616" filterUnits="userSpaceOnUse" color-interpolation-filters="sRGB">
<feFlood flood-opacity="0" result="BackgroundImageFix"/>
<feBlend mode="normal" in="SourceGraphic" in2="BackgroundImageFix" result="shape"/>
<feGaussianBlur stdDeviation="10" result="effect1_foregroundBlur_433_654"/>
</filter>
<filter id="filter6_f_433_654" x="82" y="3278.15" width="75.1921" height="73.616" filterUnits="userSpaceOnUse" color-interpolation-filters="sRGB">
<feFlood flood-opacity="0" result="BackgroundImageFix"/>
<feBlend mode="normal" in="SourceGraphic" in2="BackgroundImageFix" result="shape"/>
<feGaussianBlur stdDeviation="10" result="effect1_foregroundBlur_433_654"/>
</filter>
<filter id="filter7_f_433_654" x="334.341" y="3546.25" width="127.185" height="124.176" filterUnits="userSpaceOnUse" color-interpolation-filters="sRGB">
<feFlood flood-opacity="0" result="BackgroundImageFix"/>
<feBlend mode="normal" in="SourceGraphic" in2="BackgroundImageFix" result="shape"/>
<feGaussianBlur stdDeviation="15" result="effect1_foregroundBlur_433_654"/>
</filter>
<filter id="filter8_f_433_654" x="373.738" y="3585" width="48.3914" height="46.6721" filterUnits="userSpaceOnUse" color-interpolation-filters="sRGB">
<feFlood flood-opacity="0" result="BackgroundImageFix"/>
<feBlend mode="normal" in="SourceGraphic" in2="BackgroundImageFix" result="shape"/>
<feGaussianBlur stdDeviation="2" result="effect1_foregroundBlur_433_654"/>
</filter>
<filter id="filter9_f_433_654" x="979.9" y="3479.11" width="165.369" height="159.136" filterUnits="userSpaceOnUse" color-interpolation-filters="sRGB">
<feFlood flood-opacity="0" result="BackgroundImageFix"/>
<feBlend mode="normal" in="SourceGraphic" in2="BackgroundImageFix" result="shape"/>
<feGaussianBlur stdDeviation="5.8" result="effect1_foregroundBlur_433_654"/>
</filter>
<filter id="filter10_f_433_654" x="294.721" y="3243.33" width="150.438" height="144.779" filterUnits="userSpaceOnUse" color-interpolation-filters="sRGB">
<feFlood flood-opacity="0" result="BackgroundImageFix"/>
<feBlend mode="normal" in="SourceGraphic" in2="BackgroundImageFix" result="shape"/>
<feGaussianBlur stdDeviation="5.26667" result="effect1_foregroundBlur_433_654"/>
</filter>
<filter id="filter11_f_433_654" x="166.267" y="2287" width="72.783" height="72.783" filterUnits="userSpaceOnUse" color-interpolation-filters="sRGB">
<feFlood flood-opacity="0" result="BackgroundImageFix"/>
<feBlend mode="normal" in="SourceGraphic" in2="BackgroundImageFix" result="shape"/>
<feGaussianBlur stdDeviation="10" result="effect1_foregroundBlur_433_654"/>
</filter>
<filter id="filter12_f_433_654" x="480.685" y="2394.29" width="72.783" height="72.783" filterUnits="userSpaceOnUse" color-interpolation-filters="sRGB">
<feFlood flood-opacity="0" result="BackgroundImageFix"/>
<feBlend mode="normal" in="SourceGraphic" in2="BackgroundImageFix" result="shape"/>
<feGaussianBlur stdDeviation="10" result="effect1_foregroundBlur_433_654"/>
</filter>
<filter id="filter13_f_433_654" x="1341.98" y="2620.79" width="72.783" height="72.783" filterUnits="userSpaceOnUse" color-interpolation-filters="sRGB">
<feFlood flood-opacity="0" result="BackgroundImageFix"/>
<feBlend mode="normal" in="SourceGraphic" in2="BackgroundImageFix" result="shape"/>
<feGaussianBlur stdDeviation="10" result="effect1_foregroundBlur_433_654"/>
</filter>
<filter id="filter14_f_433_654" x="1303.24" y="3125.94" width="72.783" height="72.783" filterUnits="userSpaceOnUse" color-interpolation-filters="sRGB">
<feFlood flood-opacity="0" result="BackgroundImageFix"/>
<feBlend mode="normal" in="SourceGraphic" in2="BackgroundImageFix" result="shape"/>
<feGaussianBlur stdDeviation="10" result="effect1_foregroundBlur_433_654"/>
</filter>
<filter id="filter15_f_433_654" x="716.557" y="2931.17" width="122.586" height="122.586" filterUnits="userSpaceOnUse" color-interpolation-filters="sRGB">
<feFlood flood-opacity="0" result="BackgroundImageFix"/>
<feBlend mode="normal" in="SourceGraphic" in2="BackgroundImageFix" result="shape"/>
<feGaussianBlur stdDeviation="15" result="effect1_foregroundBlur_433_654"/>
</filter>
<filter id="filter16_f_433_654" x="754.968" y="2969.58" width="45.7632" height="45.7632" filterUnits="userSpaceOnUse" color-interpolation-filters="sRGB">
<feFlood flood-opacity="0" result="BackgroundImageFix"/>
<feBlend mode="normal" in="SourceGraphic" in2="BackgroundImageFix" result="shape"/>
<feGaussianBlur stdDeviation="2" result="effect1_foregroundBlur_433_654"/>
</filter>
<filter id="filter17_f_433_654" x="606.372" y="2674.95" width="141.787" height="141.787" filterUnits="userSpaceOnUse" color-interpolation-filters="sRGB">
<feFlood flood-opacity="0" result="BackgroundImageFix"/>
<feBlend mode="normal" in="SourceGraphic" in2="BackgroundImageFix" result="shape"/>
<feGaussianBlur stdDeviation="5.26667" result="effect1_foregroundBlur_433_654"/>
</filter>
<filter id="filter18_f_433_654" x="746.251" y="2144.42" width="75.1921" height="73.616" filterUnits="userSpaceOnUse" color-interpolation-filters="sRGB">
<feFlood flood-opacity="0" result="BackgroundImageFix"/>
<feBlend mode="normal" in="SourceGraphic" in2="BackgroundImageFix" result="shape"/>
<feGaussianBlur stdDeviation="10" result="effect1_foregroundBlur_433_654"/>
</filter>
<filter id="filter19_f_433_654" x="554.294" y="1910.63" width="75.1921" height="73.616" filterUnits="userSpaceOnUse" color-interpolation-filters="sRGB">
<feFlood flood-opacity="0" result="BackgroundImageFix"/>
<feBlend mode="normal" in="SourceGraphic" in2="BackgroundImageFix" result="shape"/>
<feGaussianBlur stdDeviation="10" result="effect1_foregroundBlur_433_654"/>
</filter>
<filter id="filter20_f_433_654" x="269.558" y="1820.48" width="75.1921" height="73.616" filterUnits="userSpaceOnUse" color-interpolation-filters="sRGB">
<feFlood flood-opacity="0" result="BackgroundImageFix"/>
<feBlend mode="normal" in="SourceGraphic" in2="BackgroundImageFix" result="shape"/>
<feGaussianBlur stdDeviation="10" result="effect1_foregroundBlur_433_654"/>
</filter>
<filter id="filter21_f_433_654" x="487.109" y="1724.22" width="75.1921" height="73.616" filterUnits="userSpaceOnUse" color-interpolation-filters="sRGB">
<feFlood flood-opacity="0" result="BackgroundImageFix"/>
<feBlend mode="normal" in="SourceGraphic" in2="BackgroundImageFix" result="shape"/>
<feGaussianBlur stdDeviation="10" result="effect1_foregroundBlur_433_654"/>
</filter>
<filter id="filter22_f_433_654" x="84" y="1666.15" width="75.1921" height="73.616" filterUnits="userSpaceOnUse" color-interpolation-filters="sRGB">
<feFlood flood-opacity="0" result="BackgroundImageFix"/>
<feBlend mode="normal" in="SourceGraphic" in2="BackgroundImageFix" result="shape"/>
<feGaussianBlur stdDeviation="10" result="effect1_foregroundBlur_433_654"/>
</filter>
<filter id="filter23_f_433_654" x="336.341" y="1934.25" width="127.185" height="124.176" filterUnits="userSpaceOnUse" color-interpolation-filters="sRGB">
<feFlood flood-opacity="0" result="BackgroundImageFix"/>
<feBlend mode="normal" in="SourceGraphic" in2="BackgroundImageFix" result="shape"/>
<feGaussianBlur stdDeviation="15" result="effect1_foregroundBlur_433_654"/>
</filter>
<filter id="filter24_f_433_654" x="375.738" y="1973" width="48.3914" height="46.672" filterUnits="userSpaceOnUse" color-interpolation-filters="sRGB">
<feFlood flood-opacity="0" result="BackgroundImageFix"/>
<feBlend mode="normal" in="SourceGraphic" in2="BackgroundImageFix" result="shape"/>
<feGaussianBlur stdDeviation="2" result="effect1_foregroundBlur_433_654"/>
</filter>
<filter id="filter25_f_433_654" x="981.9" y="1867.11" width="165.369" height="159.136" filterUnits="userSpaceOnUse" color-interpolation-filters="sRGB">
<feFlood flood-opacity="0" result="BackgroundImageFix"/>
<feBlend mode="normal" in="SourceGraphic" in2="BackgroundImageFix" result="shape"/>
<feGaussianBlur stdDeviation="5.8" result="effect1_foregroundBlur_433_654"/>
</filter>
<filter id="filter26_f_433_654" x="296.721" y="1631.33" width="150.438" height="144.779" filterUnits="userSpaceOnUse" color-interpolation-filters="sRGB">
<feFlood flood-opacity="0" result="BackgroundImageFix"/>
<feBlend mode="normal" in="SourceGraphic" in2="BackgroundImageFix" result="shape"/>
<feGaussianBlur stdDeviation="5.26667" result="effect1_foregroundBlur_433_654"/>
</filter>
<filter id="filter27_f_433_654" x="166.267" y="691" width="72.783" height="72.7829" filterUnits="userSpaceOnUse" color-interpolation-filters="sRGB">
<feFlood flood-opacity="0" result="BackgroundImageFix"/>
<feBlend mode="normal" in="SourceGraphic" in2="BackgroundImageFix" result="shape"/>
<feGaussianBlur stdDeviation="10" result="effect1_foregroundBlur_433_654"/>
</filter>
<filter id="filter28_f_433_654" x="480.685" y="798.289" width="72.783" height="72.7829" filterUnits="userSpaceOnUse" color-interpolation-filters="sRGB">
<feFlood flood-opacity="0" result="BackgroundImageFix"/>
<feBlend mode="normal" in="SourceGraphic" in2="BackgroundImageFix" result="shape"/>
<feGaussianBlur stdDeviation="10" result="effect1_foregroundBlur_433_654"/>
</filter>
<filter id="filter29_f_433_654" x="1341.98" y="1024.79" width="72.783" height="72.7829" filterUnits="userSpaceOnUse" color-interpolation-filters="sRGB">
<feFlood flood-opacity="0" result="BackgroundImageFix"/>
<feBlend mode="normal" in="SourceGraphic" in2="BackgroundImageFix" result="shape"/>
<feGaussianBlur stdDeviation="10" result="effect1_foregroundBlur_433_654"/>
</filter>
<filter id="filter30_f_433_654" x="1303.24" y="1529.94" width="72.783" height="72.783" filterUnits="userSpaceOnUse" color-interpolation-filters="sRGB">
<feFlood flood-opacity="0" result="BackgroundImageFix"/>
<feBlend mode="normal" in="SourceGraphic" in2="BackgroundImageFix" result="shape"/>
<feGaussianBlur stdDeviation="10" result="effect1_foregroundBlur_433_654"/>
</filter>
<filter id="filter31_f_433_654" x="716.557" y="1335.17" width="122.586" height="122.586" filterUnits="userSpaceOnUse" color-interpolation-filters="sRGB">
<feFlood flood-opacity="0" result="BackgroundImageFix"/>
<feBlend mode="normal" in="SourceGraphic" in2="BackgroundImageFix" result="shape"/>
<feGaussianBlur stdDeviation="15" result="effect1_foregroundBlur_433_654"/>
</filter>
<filter id="filter32_f_433_654" x="754.968" y="1373.58" width="45.7632" height="45.7632" filterUnits="userSpaceOnUse" color-interpolation-filters="sRGB">
<feFlood flood-opacity="0" result="BackgroundImageFix"/>
<feBlend mode="normal" in="SourceGraphic" in2="BackgroundImageFix" result="shape"/>
<feGaussianBlur stdDeviation="2" result="effect1_foregroundBlur_433_654"/>
</filter>
<filter id="filter33_f_433_654" x="606.372" y="1078.95" width="141.787" height="141.787" filterUnits="userSpaceOnUse" color-interpolation-filters="sRGB">
<feFlood flood-opacity="0" result="BackgroundImageFix"/>
<feBlend mode="normal" in="SourceGraphic" in2="BackgroundImageFix" result="shape"/>
<feGaussianBlur stdDeviation="5.26667" result="effect1_foregroundBlur_433_654"/>
</filter>
<filter id="filter34_f_433_654" x="746.251" y="548.416" width="75.1921" height="73.616" filterUnits="userSpaceOnUse" color-interpolation-filters="sRGB">
<feFlood flood-opacity="0" result="BackgroundImageFix"/>
<feBlend mode="normal" in="SourceGraphic" in2="BackgroundImageFix" result="shape"/>
<feGaussianBlur stdDeviation="10" result="effect1_foregroundBlur_433_654"/>
</filter>
<filter id="filter35_f_433_654" x="554.294" y="314.632" width="75.1921" height="73.616" filterUnits="userSpaceOnUse" color-interpolation-filters="sRGB">
<feFlood flood-opacity="0" result="BackgroundImageFix"/>
<feBlend mode="normal" in="SourceGraphic" in2="BackgroundImageFix" result="shape"/>
<feGaussianBlur stdDeviation="10" result="effect1_foregroundBlur_433_654"/>
</filter>
<filter id="filter36_f_433_654" x="269.558" y="224.48" width="75.1921" height="73.616" filterUnits="userSpaceOnUse" color-interpolation-filters="sRGB">
<feFlood flood-opacity="0" result="BackgroundImageFix"/>
<feBlend mode="normal" in="SourceGraphic" in2="BackgroundImageFix" result="shape"/>
<feGaussianBlur stdDeviation="10" result="effect1_foregroundBlur_433_654"/>
</filter>
<filter id="filter37_f_433_654" x="487.109" y="128.216" width="75.1921" height="73.616" filterUnits="userSpaceOnUse" color-interpolation-filters="sRGB">
<feFlood flood-opacity="0" result="BackgroundImageFix"/>
<feBlend mode="normal" in="SourceGraphic" in2="BackgroundImageFix" result="shape"/>
<feGaussianBlur stdDeviation="10" result="effect1_foregroundBlur_433_654"/>
</filter>
<filter id="filter38_f_433_654" x="84" y="70.1517" width="75.1921" height="73.616" filterUnits="userSpaceOnUse" color-interpolation-filters="sRGB">
<feFlood flood-opacity="0" result="BackgroundImageFix"/>
<feBlend mode="normal" in="SourceGraphic" in2="BackgroundImageFix" result="shape"/>
<feGaussianBlur stdDeviation="10" result="effect1_foregroundBlur_433_654"/>
</filter>
<filter id="filter39_f_433_654" x="336.341" y="338.248" width="127.185" height="124.176" filterUnits="userSpaceOnUse" color-interpolation-filters="sRGB">
<feFlood flood-opacity="0" result="BackgroundImageFix"/>
<feBlend mode="normal" in="SourceGraphic" in2="BackgroundImageFix" result="shape"/>
<feGaussianBlur stdDeviation="15" result="effect1_foregroundBlur_433_654"/>
</filter>
<filter id="filter40_f_433_654" x="375.738" y="377" width="48.3914" height="46.672" filterUnits="userSpaceOnUse" color-interpolation-filters="sRGB">
<feFlood flood-opacity="0" result="BackgroundImageFix"/>
<feBlend mode="normal" in="SourceGraphic" in2="BackgroundImageFix" result="shape"/>
<feGaussianBlur stdDeviation="2" result="effect1_foregroundBlur_433_654"/>
</filter>
<filter id="filter41_f_433_654" x="981.9" y="271.108" width="165.369" height="159.136" filterUnits="userSpaceOnUse" color-interpolation-filters="sRGB">
<feFlood flood-opacity="0" result="BackgroundImageFix"/>
<feBlend mode="normal" in="SourceGraphic" in2="BackgroundImageFix" result="shape"/>
<feGaussianBlur stdDeviation="5.8" result="effect1_foregroundBlur_433_654"/>
</filter>
<filter id="filter42_f_433_654" x="296.721" y="35.3342" width="150.438" height="144.779" filterUnits="userSpaceOnUse" color-interpolation-filters="sRGB">
<feFlood flood-opacity="0" result="BackgroundImageFix"/>
<feBlend mode="normal" in="SourceGraphic" in2="BackgroundImageFix" result="shape"/>
<feGaussianBlur stdDeviation="5.26667" result="effect1_foregroundBlur_433_654"/>
</filter>
<radialGradient id="paint0_radial_433_654" cx="0" cy="0" r="1" gradientUnits="userSpaceOnUse" gradientTransform="translate(720 2155) rotate(90) scale(2155 794.483)">
<stop stop-color="#1F1688"/>
<stop offset="1" stop-color="#070146"/>
</radialGradient>
<clipPath id="clip0_433_654">
<rect width="1440" height="4310" fill="white"/>
</clipPath>
</defs>
</svg>
