<svg width="1440" height="1893" viewBox="0 0 1440 1893" fill="none" xmlns="http://www.w3.org/2000/svg">
<g clip-path="url(#clip0_433_968)">
<rect width="1440" height="1893" fill="#080349"/>
<path d="M-0.000179291 839.391H196.697M-0.000179291 946.681H515.586" stroke="#3CE5FC"/>
<path d="M-0.000208855 1250.67L124.426 1127.73L415.002 1127.73L549.114 1261.84H616.915M736.871 1261.84H959.646L1048.31 1173.18H1371.67" stroke="#3CE5FC"/>
<path d="M-0.000370026 1596.38H146.033L233.951 1508.46H771.889" stroke="#3CE5FC"/>
<path d="M-0.000149012 1703.67L366.573 1703.67L453 1617.24H908.981L970.077 1678.34H1338.14" stroke="#3CE5FC"/>
<circle cx="202.658" cy="839.392" r="8.9408" transform="rotate(90 202.658 839.392)" fill="#37C9E9"/>
<g filter="url(#filter0_f_433_968)">
<circle cx="202.658" cy="839.391" r="16.3915" transform="rotate(90 202.658 839.391)" fill="#3CE5FC" fill-opacity="0.6"/>
</g>
<circle cx="517.076" cy="946.681" r="8.9408" transform="rotate(90 517.076 946.681)" fill="#37C9E9"/>
<g filter="url(#filter1_f_433_968)">
<circle cx="517.076" cy="946.681" r="16.3915" transform="rotate(90 517.076 946.681)" fill="#3CE5FC" fill-opacity="0.6"/>
</g>
<circle cx="1378.37" cy="1173.18" r="8.9408" transform="rotate(90 1378.37 1173.18)" fill="#37C9E9"/>
<g filter="url(#filter2_f_433_968)">
<circle cx="1378.37" cy="1173.18" r="16.3915" transform="rotate(90 1378.37 1173.18)" fill="#3CE5FC" fill-opacity="0.6"/>
</g>
<circle cx="1339.63" cy="1678.34" r="8.9408" transform="rotate(90 1339.63 1678.34)" fill="#37C9E9"/>
<g filter="url(#filter3_f_433_968)">
<circle cx="1339.63" cy="1678.34" r="16.3915" transform="rotate(90 1339.63 1678.34)" fill="#3CE5FC" fill-opacity="0.6"/>
</g>
<circle cx="777.85" cy="1508.46" r="8.9408" transform="rotate(90 777.85 1508.46)" fill="#37C9E9"/>
<g filter="url(#filter4_f_433_968)">
<circle cx="777.85" cy="1508.46" r="31.2928" transform="rotate(90 777.85 1508.46)" fill="#3CE5FC" fill-opacity="0.7"/>
</g>
<circle cx="777.85" cy="1508.46" r="18.3816" transform="rotate(90 777.85 1508.46)" stroke="#3CE5FC"/>
<g filter="url(#filter5_f_433_968)">
<circle cx="777.85" cy="1508.46" r="18.3816" transform="rotate(90 777.85 1508.46)" stroke="#3CE5FC"/>
</g>
<circle cx="677.266" cy="1261.84" r="58.8603" transform="rotate(90 677.266 1261.84)" stroke="#3CE5FC" stroke-width="3"/>
<g filter="url(#filter6_f_433_968)">
<circle cx="677.266" cy="1261.84" r="58.8603" transform="rotate(90 677.266 1261.84)" stroke="#3CE5FC" stroke-width="3"/>
</g>
<path d="M785.447 697.224L1362.92 697.224L1438.1 625.408" stroke="#3CE5FC"/>
<path d="M1440.5 328.976H1198.95L1110.97 413.016M1011.8 507.752L1007 512.336L407.132 512.336" stroke="#3CE5FC"/>
<path d="M1437.3 649.092L1242.94 463.44H1134.97M993.4 463.44H598.289" stroke="#3CE5FC"/>
<path d="M1438.1 567.344H1225.35L1133.37 479.484M1044.59 396.208L1020.59 373.288L313.553 373.288" stroke="#3CE5FC"/>
<path d="M1438.1 112H1268.54L1095.78 277.024L526.305 277.024" stroke="#3CE5FC"/>
<path d="M1438.1 218.196L1311.73 218.196L1218.95 129.572L742.257 129.572L648.678 218.96L437.525 218.96M307.154 218.96L128.794 218.96" stroke="#3CE5FC"/>
<ellipse cx="783.847" cy="697.224" rx="9.168" ry="9.59785" transform="rotate(-90 783.847 697.224)" fill="#37C9E9"/>
<g filter="url(#filter7_f_433_968)">
<ellipse cx="783.848" cy="697.224" rx="16.808" ry="17.5961" transform="rotate(-90 783.848 697.224)" fill="#3CE5FC" fill-opacity="0.6"/>
</g>
<ellipse cx="591.891" cy="463.44" rx="9.168" ry="9.59785" transform="rotate(-90 591.891 463.44)" fill="#37C9E9"/>
<g filter="url(#filter8_f_433_968)">
<ellipse cx="591.891" cy="463.44" rx="16.808" ry="17.5961" transform="rotate(-90 591.891 463.44)" fill="#3CE5FC" fill-opacity="0.6"/>
</g>
<ellipse cx="307.154" cy="373.288" rx="9.168" ry="9.59785" transform="rotate(-90 307.154 373.288)" fill="#37C9E9"/>
<g filter="url(#filter9_f_433_968)">
<ellipse cx="307.155" cy="373.288" rx="16.808" ry="17.5961" transform="rotate(-90 307.155 373.288)" fill="#3CE5FC" fill-opacity="0.6"/>
</g>
<ellipse cx="524.705" cy="277.024" rx="9.168" ry="9.59785" transform="rotate(-90 524.705 277.024)" fill="#37C9E9"/>
<g filter="url(#filter10_f_433_968)">
<ellipse cx="524.705" cy="277.024" rx="16.808" ry="17.5961" transform="rotate(-90 524.705 277.024)" fill="#3CE5FC" fill-opacity="0.6"/>
</g>
<ellipse cx="121.596" cy="218.96" rx="9.168" ry="9.59785" transform="rotate(-90 121.596 218.96)" fill="#37C9E9"/>
<g filter="url(#filter11_f_433_968)">
<ellipse cx="121.596" cy="218.96" rx="16.808" ry="17.5961" transform="rotate(-90 121.596 218.96)" fill="#3CE5FC" fill-opacity="0.6"/>
</g>
<ellipse cx="399.934" cy="512.336" rx="9.168" ry="9.59785" transform="rotate(-90 399.934 512.336)" fill="#37C9E9"/>
<g filter="url(#filter12_f_433_968)">
<ellipse cx="399.934" cy="512.336" rx="32.088" ry="33.5925" transform="rotate(-90 399.934 512.336)" fill="#3CE5FC" fill-opacity="0.7"/>
</g>
<path d="M419.629 512.336C419.629 501.912 410.789 493.5 399.933 493.5C389.078 493.5 380.238 501.912 380.238 512.336C380.238 522.761 389.078 531.172 399.933 531.172C410.789 531.172 419.629 522.761 419.629 512.336Z" stroke="#3CE5FC"/>
<g filter="url(#filter13_f_433_968)">
<path d="M419.629 512.336C419.629 501.912 410.789 493.5 399.933 493.5C389.078 493.5 380.238 501.912 380.238 512.336C380.238 522.761 389.078 531.172 399.933 531.172C410.789 531.172 419.629 522.761 419.629 512.336Z" stroke="#3CE5FC"/>
</g>
<ellipse cx="1064.58" cy="462.676" rx="66.468" ry="69.5844" transform="rotate(-90 1064.58 462.676)" stroke="#3CE5FC" stroke-width="3"/>
<g filter="url(#filter14_f_433_968)">
<ellipse cx="1064.58" cy="462.676" rx="66.468" ry="69.5844" transform="rotate(-90 1064.58 462.676)" stroke="#3CE5FC" stroke-width="3"/>
</g>
<ellipse cx="371.94" cy="219.724" rx="60.356" ry="63.1858" transform="rotate(-90 371.94 219.724)" stroke="#3CE5FC" stroke-width="3"/>
<g filter="url(#filter15_f_433_968)">
<ellipse cx="371.94" cy="219.724" rx="60.356" ry="63.1858" transform="rotate(-90 371.94 219.724)" stroke="#3CE5FC" stroke-width="3"/>
</g>
</g>
<defs>
<filter id="filter0_f_433_968" x="166.267" y="803" width="72.7827" height="72.7829" filterUnits="userSpaceOnUse" color-interpolation-filters="sRGB">
<feFlood flood-opacity="0" result="BackgroundImageFix"/>
<feBlend mode="normal" in="SourceGraphic" in2="BackgroundImageFix" result="shape"/>
<feGaussianBlur stdDeviation="10" result="effect1_foregroundBlur_433_968"/>
</filter>
<filter id="filter1_f_433_968" x="480.685" y="910.29" width="72.7827" height="72.7829" filterUnits="userSpaceOnUse" color-interpolation-filters="sRGB">
<feFlood flood-opacity="0" result="BackgroundImageFix"/>
<feBlend mode="normal" in="SourceGraphic" in2="BackgroundImageFix" result="shape"/>
<feGaussianBlur stdDeviation="10" result="effect1_foregroundBlur_433_968"/>
</filter>
<filter id="filter2_f_433_968" x="1341.98" y="1136.79" width="72.7827" height="72.7829" filterUnits="userSpaceOnUse" color-interpolation-filters="sRGB">
<feFlood flood-opacity="0" result="BackgroundImageFix"/>
<feBlend mode="normal" in="SourceGraphic" in2="BackgroundImageFix" result="shape"/>
<feGaussianBlur stdDeviation="10" result="effect1_foregroundBlur_433_968"/>
</filter>
<filter id="filter3_f_433_968" x="1303.24" y="1641.95" width="72.7827" height="72.783" filterUnits="userSpaceOnUse" color-interpolation-filters="sRGB">
<feFlood flood-opacity="0" result="BackgroundImageFix"/>
<feBlend mode="normal" in="SourceGraphic" in2="BackgroundImageFix" result="shape"/>
<feGaussianBlur stdDeviation="10" result="effect1_foregroundBlur_433_968"/>
</filter>
<filter id="filter4_f_433_968" x="716.557" y="1447.17" width="122.585" height="122.586" filterUnits="userSpaceOnUse" color-interpolation-filters="sRGB">
<feFlood flood-opacity="0" result="BackgroundImageFix"/>
<feBlend mode="normal" in="SourceGraphic" in2="BackgroundImageFix" result="shape"/>
<feGaussianBlur stdDeviation="15" result="effect1_foregroundBlur_433_968"/>
</filter>
<filter id="filter5_f_433_968" x="754.968" y="1485.58" width="45.7632" height="45.7632" filterUnits="userSpaceOnUse" color-interpolation-filters="sRGB">
<feFlood flood-opacity="0" result="BackgroundImageFix"/>
<feBlend mode="normal" in="SourceGraphic" in2="BackgroundImageFix" result="shape"/>
<feGaussianBlur stdDeviation="2" result="effect1_foregroundBlur_433_968"/>
</filter>
<filter id="filter6_f_433_968" x="606.372" y="1190.95" width="141.787" height="141.787" filterUnits="userSpaceOnUse" color-interpolation-filters="sRGB">
<feFlood flood-opacity="0" result="BackgroundImageFix"/>
<feBlend mode="normal" in="SourceGraphic" in2="BackgroundImageFix" result="shape"/>
<feGaussianBlur stdDeviation="5.26667" result="effect1_foregroundBlur_433_968"/>
</filter>
<filter id="filter7_f_433_968" x="746.251" y="660.416" width="75.1919" height="73.616" filterUnits="userSpaceOnUse" color-interpolation-filters="sRGB">
<feFlood flood-opacity="0" result="BackgroundImageFix"/>
<feBlend mode="normal" in="SourceGraphic" in2="BackgroundImageFix" result="shape"/>
<feGaussianBlur stdDeviation="10" result="effect1_foregroundBlur_433_968"/>
</filter>
<filter id="filter8_f_433_968" x="554.294" y="426.632" width="75.1919" height="73.616" filterUnits="userSpaceOnUse" color-interpolation-filters="sRGB">
<feFlood flood-opacity="0" result="BackgroundImageFix"/>
<feBlend mode="normal" in="SourceGraphic" in2="BackgroundImageFix" result="shape"/>
<feGaussianBlur stdDeviation="10" result="effect1_foregroundBlur_433_968"/>
</filter>
<filter id="filter9_f_433_968" x="269.559" y="336.48" width="75.1919" height="73.616" filterUnits="userSpaceOnUse" color-interpolation-filters="sRGB">
<feFlood flood-opacity="0" result="BackgroundImageFix"/>
<feBlend mode="normal" in="SourceGraphic" in2="BackgroundImageFix" result="shape"/>
<feGaussianBlur stdDeviation="10" result="effect1_foregroundBlur_433_968"/>
</filter>
<filter id="filter10_f_433_968" x="487.109" y="240.216" width="75.1919" height="73.616" filterUnits="userSpaceOnUse" color-interpolation-filters="sRGB">
<feFlood flood-opacity="0" result="BackgroundImageFix"/>
<feBlend mode="normal" in="SourceGraphic" in2="BackgroundImageFix" result="shape"/>
<feGaussianBlur stdDeviation="10" result="effect1_foregroundBlur_433_968"/>
</filter>
<filter id="filter11_f_433_968" x="84" y="182.152" width="75.1919" height="73.616" filterUnits="userSpaceOnUse" color-interpolation-filters="sRGB">
<feFlood flood-opacity="0" result="BackgroundImageFix"/>
<feBlend mode="normal" in="SourceGraphic" in2="BackgroundImageFix" result="shape"/>
<feGaussianBlur stdDeviation="10" result="effect1_foregroundBlur_433_968"/>
</filter>
<filter id="filter12_f_433_968" x="336.341" y="450.248" width="127.185" height="124.176" filterUnits="userSpaceOnUse" color-interpolation-filters="sRGB">
<feFlood flood-opacity="0" result="BackgroundImageFix"/>
<feBlend mode="normal" in="SourceGraphic" in2="BackgroundImageFix" result="shape"/>
<feGaussianBlur stdDeviation="15" result="effect1_foregroundBlur_433_968"/>
</filter>
<filter id="filter13_f_433_968" x="375.738" y="489" width="48.3916" height="46.672" filterUnits="userSpaceOnUse" color-interpolation-filters="sRGB">
<feFlood flood-opacity="0" result="BackgroundImageFix"/>
<feBlend mode="normal" in="SourceGraphic" in2="BackgroundImageFix" result="shape"/>
<feGaussianBlur stdDeviation="2" result="effect1_foregroundBlur_433_968"/>
</filter>
<filter id="filter14_f_433_968" x="981.9" y="383.108" width="165.369" height="159.136" filterUnits="userSpaceOnUse" color-interpolation-filters="sRGB">
<feFlood flood-opacity="0" result="BackgroundImageFix"/>
<feBlend mode="normal" in="SourceGraphic" in2="BackgroundImageFix" result="shape"/>
<feGaussianBlur stdDeviation="5.8" result="effect1_foregroundBlur_433_968"/>
</filter>
<filter id="filter15_f_433_968" x="296.721" y="147.335" width="150.438" height="144.779" filterUnits="userSpaceOnUse" color-interpolation-filters="sRGB">
<feFlood flood-opacity="0" result="BackgroundImageFix"/>
<feBlend mode="normal" in="SourceGraphic" in2="BackgroundImageFix" result="shape"/>
<feGaussianBlur stdDeviation="5.26667" result="effect1_foregroundBlur_433_968"/>
</filter>
<clipPath id="clip0_433_968">
<rect width="1440" height="1893" fill="white"/>
</clipPath>
</defs>
</svg>
