<svg width="55" height="54" viewBox="0 0 55 54" fill="none" xmlns="http://www.w3.org/2000/svg">
<path d="M27.5 27C34.9558 27 41 20.9558 41 13.5C41 6.04416 34.9558 0 27.5 0C20.0442 0 14 6.04416 14 13.5C14 20.9558 20.0442 27 27.5 27ZM36.5 13.5C36.5 18.4706 32.4706 22.5 27.5 22.5C22.5294 22.5 18.5 18.4706 18.5 13.5C18.5 8.52944 22.5294 4.5 27.5 4.5C32.4706 4.5 36.5 8.52944 36.5 13.5Z" fill="white"/>
<path d="M54.5 49.5C54.5 54 50 54 50 54H5C5 54 0.5 54 0.5 49.5C0.5 45 5 31.5 27.5 31.5C50 31.5 54.5 45 54.5 49.5ZM49.9999 49.4843C49.9935 48.3738 49.308 45.047 46.2555 41.9945C43.3203 39.0593 37.8009 36 27.5 36C17.199 36 11.6796 39.0593 8.74444 41.9945C5.6919 45.047 5.00641 48.3738 5 49.4843H49.9999Z" fill="white"/>
</svg>
