<svg width="86" height="86" viewBox="0 0 86 86" fill="none" xmlns="http://www.w3.org/2000/svg">
<path d="M13.4375 2.6875C13.4375 1.20323 14.6407 0 16.125 0H69.875C71.3593 0 72.5625 1.20323 72.5625 2.6875C72.5625 5.57669 72.4987 8.32649 72.377 10.9429C80.0944 12.1452 86 18.8204 86 26.875C86 35.7806 78.7806 43 69.875 43C68.6447 43 67.4446 42.8617 66.2902 42.5995C62.0448 52.6254 56.1953 57.527 51.0625 58.7888V70.4642L58.7238 72.3795C59.7663 72.6401 60.7462 73.1065 61.6058 73.7513L71.4875 81.1625C72.4129 81.8566 72.7904 83.0649 72.4246 84.1624C72.0588 85.2598 71.0318 86 69.875 86H16.125C14.9682 86 13.9412 85.2598 13.5754 84.1624C13.2096 83.0649 13.5871 81.8566 14.5125 81.1625L24.3942 73.7513C25.2538 73.1065 26.2337 72.6401 27.2762 72.3795L34.9375 70.4642V58.7888C29.8047 57.527 23.9552 52.6254 19.7098 42.5995C18.5554 42.8617 17.3553 43 16.125 43C7.21941 43 0 35.7806 0 26.875C0 18.8204 5.90558 12.1452 13.623 10.9429C13.5013 8.32649 13.4375 5.57669 13.4375 2.6875ZM13.9696 16.3411C9.06548 17.3393 5.375 21.6761 5.375 26.875C5.375 32.8121 10.1879 37.625 16.125 37.625C16.7081 37.625 17.2794 37.5788 17.8357 37.49C16.0491 31.8489 14.6771 24.8835 13.9696 16.3411ZM68.1643 37.49C68.7206 37.5788 69.2919 37.625 69.875 37.625C75.8121 37.625 80.625 32.8121 80.625 26.875C80.625 21.6761 76.9345 17.3393 72.0304 16.3411C71.3229 24.8835 69.9509 31.8489 68.1643 37.49ZM18.8318 5.375C18.8723 8.1526 18.9753 10.7821 19.134 13.2703C19.8293 24.1709 21.5903 32.3323 23.8103 38.3551C28.4564 50.9598 34.8498 53.75 37.625 53.75C39.1093 53.75 40.3125 54.9532 40.3125 56.4375V70.4642C40.3125 72.9306 38.6339 75.0805 36.2411 75.6787L28.5798 77.594C28.2323 77.6809 27.9057 77.8363 27.6192 78.0513L24.1875 80.625H61.8125L58.3808 78.0513C58.0943 77.8363 57.7677 77.6809 57.4202 77.594L49.7589 75.6787C47.3661 75.0805 45.6875 72.9306 45.6875 70.4642V56.4375C45.6875 54.9532 46.8907 53.75 48.375 53.75C51.1502 53.75 57.5436 50.9598 62.1897 38.3551C64.4097 32.3323 66.1707 24.1709 66.866 13.2703C67.0247 10.7821 67.1277 8.1526 67.1682 5.375H18.8318Z" fill="white"/>
</svg>
