<svg width="55" height="54" viewBox="0 0 55 54" fill="none" xmlns="http://www.w3.org/2000/svg">
<path d="M20.75 45C20.75 44.0059 21.5055 43.2 22.4375 43.2H32.5625C33.4945 43.2 34.25 44.0059 34.25 45C34.25 45.9941 33.4945 46.8 32.5625 46.8H22.4375C21.5055 46.8 20.75 45.9941 20.75 45Z" fill="white"/>
<path d="M10.625 29.0216C10.625 24.3375 14.7921 20.7526 19.1644 21.189C21.5524 21.4274 24.3644 21.6 27.5 21.6C30.6356 21.6 33.4476 21.4274 35.8356 21.189C40.2079 20.7526 44.375 24.3375 44.375 29.0216V33.1892C44.375 34.8411 43.3203 36.27 41.7945 36.5531C38.9425 37.0821 33.8943 37.8 27.5 37.8C21.1057 37.8 16.0575 37.0821 13.2055 36.5531C11.6797 36.27 10.625 34.8411 10.625 33.1892V29.0216ZM25.9541 26.046C25.6879 25.9977 25.4161 26.0882 25.2229 26.2894L22.1145 29.528C19.6606 29.3705 17.5306 29.1241 15.8021 28.8714C15.3404 28.8038 14.9149 29.1483 14.8516 29.6408C14.7883 30.1332 15.1112 30.5872 15.5729 30.6547C17.428 30.926 19.7307 31.1893 22.3904 31.3481C22.6267 31.3622 22.8577 31.2698 23.0271 31.0933L25.5717 28.4422L28.4314 34.5996C28.5534 34.8622 28.7877 35.0451 29.0593 35.0896C29.331 35.1341 29.6059 35.0347 29.7962 34.8233L32.9419 31.3276C35.4614 31.1673 37.6496 30.9146 39.4271 30.6547C39.8888 30.5872 40.2117 30.1332 40.1484 29.6408C40.0851 29.1483 39.6596 28.8038 39.1979 28.8714C37.383 29.1368 35.1256 29.3951 32.5154 29.5509C32.3023 29.5636 32.1016 29.662 31.9538 29.8263L29.4104 32.6526L26.5686 26.5337C26.4487 26.2757 26.2203 26.0944 25.9541 26.046Z" fill="white"/>
<path d="M29.1875 6.71838C30.1963 6.09593 30.875 4.93251 30.875 3.6C30.875 1.61177 29.364 0 27.5 0C25.636 0 24.125 1.61177 24.125 3.6C24.125 4.93251 24.8037 6.09593 25.8125 6.71838V10.8H19.0625C10.6747 10.8 3.875 18.053 3.875 27V28.8C2.01104 28.8 0.5 30.4118 0.5 32.4V39.6C0.5 41.5882 2.01104 43.2 3.875 43.2V46.8C3.875 50.7764 6.89708 54 10.625 54H44.375C48.1029 54 51.125 50.7764 51.125 46.8V43.2C52.989 43.2 54.5 41.5882 54.5 39.6V32.4C54.5 30.4118 52.989 28.8 51.125 28.8V27C51.125 18.053 44.3253 10.8 35.9375 10.8H29.1875V6.71838ZM47.75 27V46.8C47.75 48.7882 46.239 50.4 44.375 50.4H10.625C8.76104 50.4 7.25 48.7882 7.25 46.8V27C7.25 20.0412 12.5386 14.4 19.0625 14.4H35.9375C42.4614 14.4 47.75 20.0412 47.75 27Z" fill="white"/>
</svg>
