<svg width="79" height="78" viewBox="0 0 79 78" fill="none" xmlns="http://www.w3.org/2000/svg">
<path id="v2 (Stroke)" d="M12.3438 2.4375C12.3438 1.09131 13.449 0 14.8125 0H64.1875C65.551 0 66.6562 1.09131 66.6562 2.4375C66.6562 5.05793 66.5976 7.55194 66.4858 9.925C73.5751 11.0154 79 17.0697 79 24.375C79 32.4522 72.3682 39 64.1875 39C63.0573 39 61.9549 38.8746 60.8945 38.6367C56.9947 47.73 51.6212 52.1756 46.9062 53.32V63.9094L53.9439 65.6465C54.9016 65.8829 55.8017 66.3059 56.5914 66.8907L65.6688 73.6125C66.5188 74.242 66.8656 75.338 66.5296 76.3333C66.1935 77.3286 65.2501 78 64.1875 78H14.8125C13.7499 78 12.8065 77.3286 12.4704 76.3333C12.1344 75.338 12.4811 74.242 13.3313 73.6125L22.4086 66.8907C23.1983 66.3059 24.0984 65.8829 25.0561 65.6465L32.0938 63.9094V53.32C27.3788 52.1756 22.0053 47.73 18.1055 38.6367C17.0451 38.8746 15.9426 39 14.8125 39C6.63178 39 0 32.4522 0 24.375C0 17.0697 5.42489 11.0154 12.5142 9.925C12.4024 7.55194 12.3438 5.05793 12.3438 2.4375ZM12.8325 14.821C8.32759 15.7263 4.9375 19.6598 4.9375 24.375C4.9375 29.7598 9.35869 34.125 14.8125 34.125C15.3482 34.125 15.8729 34.0831 16.3839 34.0026C14.7428 28.8862 13.4825 22.5687 12.8325 14.821ZM62.6161 34.0026C63.1271 34.0831 63.6518 34.125 64.1875 34.125C69.6413 34.125 74.0625 29.7598 74.0625 24.375C74.0625 19.6598 70.6724 15.7263 66.1675 14.821C65.5175 22.5687 64.2572 28.8862 62.6161 34.0026Z" fill="white"/>
</svg>
